# Blender v2.91.0 OBJ File: 'untitled.blend'
# www.blender.org
mtllib tank_hull.mtl
o Hull
v -1.660926 0.000000 -2.922257
v -1.501201 1.625000 -2.776656
v -1.006375 0.000000 2.933408
v -1.501201 1.625000 1.455512
v -1.430157 0.992003 3.904476
v -2.000000 1.222325 -3.875001
v -1.279993 0.543145 3.626070
v -2.000000 0.248597 -3.326585
v 0.000000 0.000000 -2.922257
v 0.000000 1.625000 -2.776656
v 0.000000 0.000000 2.933408
v 0.000000 1.625000 1.455512
v 1.660926 0.000000 -2.922257
v 1.501201 1.625000 -2.776656
v 1.006375 0.000000 2.933408
v 1.501201 1.625000 1.455512
v 0.000000 1.222325 -3.875001
v 0.000000 1.222325 3.874999
v 1.430157 0.992003 3.904476
v 2.000000 1.222325 -3.875001
v 0.000000 0.543145 3.626070
v 1.279993 0.543145 3.626070
v 2.000000 0.248597 -3.326585
v 0.000000 0.248597 -3.326585
vt 0.563050 0.250000
vt 0.625000 0.250000
vt 0.625000 0.500000
vt 0.563050 0.500000
vt 0.625000 0.750000
vt 0.563050 0.750000
vt 0.625000 1.000000
vt 0.563050 1.000000
vt 0.125000 0.500000
vt 0.375000 0.500000
vt 0.375000 0.750000
vt 0.125000 0.750000
vt 0.875000 0.500000
vt 0.875000 0.750000
vt 0.423294 0.750000
vt 0.423294 1.000000
vt 0.423294 0.500000
vt 0.423294 0.250000
vt 0.375000 0.250000
vt 0.375000 1.000000
vt 0.563050 0.500000
vt 0.625000 0.500000
vt 0.563050 0.750000
vt 0.625000 0.750000
vt 0.375000 0.750000
vt 0.375000 0.500000
vt 0.423294 0.750000
vt 0.423294 0.500000
vn -0.0745 0.9752 0.2085
vn -0.8979 0.4373 0.0510
vn 0.0000 0.9389 -0.3442
vn 0.0000 -1.0000 0.0000
vn 0.0000 1.0000 0.0000
vn 0.0000 -0.4907 -0.8713
vn -0.9923 -0.0882 0.0873
vn 0.0454 -0.4181 0.9073
vn 0.0000 -0.7869 0.6171
vn -0.7697 -0.6310 0.0971
vn 0.0000 -0.8519 -0.5238
vn 0.0745 0.9752 0.2085
vn 0.8979 0.4373 0.0510
vn 0.9923 -0.0882 0.0873
vn -0.0454 -0.4181 0.9073
vn 0.7697 -0.6310 0.0971
usemtl None
s off
f 18/1/1 12/2/1 4/3/1 5/4/1
f 5/4/2 4/3/2 2/5/2 6/6/2
f 6/6/3 2/5/3 10/7/3 17/8/3
f 11/9/4 3/10/4 1/11/4 9/12/4
f 4/3/5 12/13/5 10/14/5 2/5/5
f 8/15/6 6/6/6 17/8/6 24/16/6
f 7/17/7 5/4/7 6/6/7 8/15/7
f 21/18/8 18/1/8 5/4/8 7/17/8
f 11/19/9 21/18/9 7/17/9 3/10/9
f 3/10/10 7/17/10 8/15/10 1/11/10
f 1/11/11 8/15/11 24/16/11 9/20/11
f 18/1/12 19/21/12 16/22/12 12/2/12
f 19/21/13 20/23/13 14/24/13 16/22/13
f 20/23/3 17/8/3 10/7/3 14/24/3
f 11/9/4 9/12/4 13/25/4 15/26/4
f 16/22/5 14/24/5 10/14/5 12/13/5
f 23/27/6 24/16/6 17/8/6 20/23/6
f 22/28/14 23/27/14 20/23/14 19/21/14
f 21/18/15 22/28/15 19/21/15 18/1/15
f 11/19/9 15/26/9 22/28/9 21/18/9
f 15/26/16 13/25/16 23/27/16 22/28/16
f 13/25/11 9/20/11 24/16/11 23/27/11
