# Blender v2.91.0 OBJ File: 'untitled.blend'
# www.blender.org
# From https://www.youtube.com/watch?v=9xAumJRKV6A
mtllib person.mtl
o person
v 0.937642 0.839268 -0.334920
v 0.744148 0.000707 -0.442197
v 0.937642 0.839268 0.087085
v 0.739116 0.000707 0.316320
v 0.222479 1.070161 -0.232861
v 0.001948 -1.328858 -0.584405
v 0.869051 -1.092872 -0.404730
v 0.863798 -1.092872 0.342173
v 0.222479 1.070161 -0.004174
v 0.815034 -2.731063 0.196014
v 0.815034 -2.731063 0.588768
v 0.379009 -2.731404 0.108835
v 0.379009 -2.731404 0.675947
v 0.543394 -5.058768 -0.356261
v 0.463263 -5.058768 -0.046193
v 0.781791 -5.058581 -0.308596
v 0.818774 -5.058581 -0.049477
v 0.751944 0.240815 -0.379988
v 0.749740 0.240815 0.106530
v 1.065316 0.723900 -0.379988
v 1.065316 0.723899 0.042017
v 1.125639 0.415218 -0.379988
v 1.125639 0.415218 0.067227
v 1.263394 -1.626767 -0.156255
v 1.263394 -1.626767 -0.090961
v 1.315905 -1.627245 -0.156255
v 1.315905 -1.627245 -0.090961
v 1.257134 -1.933044 -0.243284
v 1.257134 -1.933044 -0.003931
v 1.316581 -1.934795 -0.243284
v 1.316581 -1.934795 -0.003931
v 1.359340 -0.582244 -0.312338
v 1.063690 -0.611735 -0.312338
v 1.359340 -0.582244 0.065122
v 1.063690 -0.611735 0.065122
v 0.543595 -5.315569 -0.356261
v 0.463464 -5.315569 -0.046193
v 0.781992 -5.315382 -0.308596
v 0.818976 -5.315382 -0.049477
v 0.507235 -5.199624 0.429009
v 0.817889 -5.199437 0.355556
v 0.507497 -5.315569 0.428987
v 0.818151 -5.315382 0.355535
v 0.515764 -4.914835 0.108246
v 0.764777 -4.914697 -0.090956
v 0.565110 -4.914835 -0.121826
v 0.742002 -4.914697 -0.277623
v 0.374094 1.488650 -0.214796
v 0.374094 1.488650 0.013890
v 0.690211 -0.546082 -0.423464
v 0.685068 -0.546082 0.329247
v 0.478821 1.766551 -0.398945
v 0.478821 1.766551 0.001328
v 0.368336 2.365164 -0.354295
v 0.368336 2.365164 0.045978
v 0.338546 1.561205 0.249045
v 0.357781 1.785292 0.249045
v 0.367411 2.197021 0.246016
v 0.263846 1.340070 -0.205313
v 0.263846 1.340070 -0.063842
v 1.216416 -1.622552 0.021003
v 1.341212 -1.593560 0.027860
v 1.191947 -1.571174 -0.246311
v 1.384439 -1.572924 -0.246311
v 1.250609 -1.680640 -0.039676
v 1.216070 -1.705086 -0.245191
v 1.359328 -1.706837 -0.245191
v 1.343547 -1.659268 -0.034780
v 1.338601 -1.813941 0.055122
v 1.337631 -1.786653 0.081136
v 1.285805 -1.798693 0.078288
v 1.300005 -1.822816 0.053089
v -0.937642 0.839268 -0.334920
v -0.744148 0.000707 -0.442197
v -0.937642 0.839268 0.087085
v -0.739116 0.000707 0.316320
v 0.000000 1.024242 -0.462735
v 0.000000 0.000707 -0.559195
v 0.000000 0.938528 0.295435
v 0.000000 -0.009377 0.469492
v 0.000000 1.124983 0.029657
v -0.222479 1.070161 -0.232861
v -0.001948 -1.328858 -0.584405
v 0.000000 -1.349053 0.500867
v -0.869051 -1.092872 -0.404730
v -0.863798 -1.092872 0.342173
v -0.222479 1.070161 -0.004174
v 0.000000 1.124983 -0.379157
v -0.815034 -2.731063 0.196014
v -0.815034 -2.731063 0.588768
v -0.379009 -2.731404 0.108835
v -0.379009 -2.731404 0.675947
v -0.543394 -5.058768 -0.356261
v -0.463263 -5.058768 -0.046193
v -0.781791 -5.058581 -0.308596
v -0.818774 -5.058581 -0.049477
v -0.751944 0.240815 -0.379988
v 0.000000 0.334091 0.446213
v -0.749740 0.240815 0.106530
v 0.000000 0.331570 -0.531464
v -1.065316 0.723900 -0.379988
v -1.065316 0.723899 0.042017
v -1.125639 0.415218 -0.379988
v -1.125639 0.415218 0.067227
v -1.263394 -1.626767 -0.156255
v -1.263394 -1.626767 -0.090961
v -1.315905 -1.627245 -0.156255
v -1.315905 -1.627245 -0.090961
v -1.257134 -1.933044 -0.243284
v -1.257134 -1.933044 -0.003931
v -1.316581 -1.934795 -0.243284
v -1.316581 -1.934795 -0.003931
v -1.359340 -0.582244 -0.312338
v -1.063690 -0.611735 -0.312338
v -1.359340 -0.582244 0.065122
v -1.063690 -0.611735 0.065122
v -0.543595 -5.315569 -0.356261
v -0.463464 -5.315569 -0.046193
v -0.781992 -5.315382 -0.308596
v -0.818976 -5.315382 -0.049477
v -0.507235 -5.199624 0.429009
v -0.817889 -5.199437 0.355556
v -0.507497 -5.315569 0.428987
v -0.818151 -5.315382 0.355535
v -0.515764 -4.914835 0.108246
v -0.764777 -4.914697 -0.090956
v -0.565110 -4.914835 -0.121826
v -0.742002 -4.914697 -0.277623
v 0.000000 1.481527 -0.373654
v -0.374094 1.488650 -0.214796
v 0.000000 1.371712 0.035159
v -0.374094 1.488650 0.013890
v 0.000000 -0.664076 -0.571800
v 0.000000 -0.679215 0.485179
v -0.690211 -0.546082 -0.423464
v -0.685068 -0.546082 0.329247
v 0.000000 1.810123 -0.545241
v -0.478821 1.766551 -0.398945
v 0.000000 1.370504 -0.295815
v -0.478821 1.766551 0.001328
v 0.000000 2.540117 -0.548269
v -0.368336 2.365164 -0.354295
v 0.000000 2.540117 0.032130
v -0.368336 2.365164 0.045978
v -0.338546 1.561205 0.249045
v 0.000000 1.473303 0.272116
v -0.357781 1.785292 0.249045
v 0.000000 1.807205 0.272116
v -0.367411 2.197021 0.246016
v 0.000000 2.356203 0.269087
v -0.263846 1.340070 -0.205313
v -0.263846 1.340070 -0.063842
v 0.000000 1.370504 -0.042913
v -1.216416 -1.622552 0.021003
v -1.341212 -1.593560 0.027860
v -1.191947 -1.571174 -0.246311
v -1.384439 -1.572924 -0.246311
v -1.250609 -1.680640 -0.039676
v -1.216070 -1.705086 -0.245191
v -1.359328 -1.706837 -0.245191
v -1.343547 -1.659268 -0.034780
v -1.338601 -1.813941 0.055122
v -1.337631 -1.786653 0.081136
v -1.285805 -1.798693 0.078288
v -1.300005 -1.822816 0.053089
vt 0.625000 0.750000
vt 0.625000 0.500000
vt 0.625000 0.500000
vt 0.625000 0.750000
vt 0.436740 0.750000
vt 0.625000 1.000000
vt 0.436740 1.000000
vt 0.375000 0.249710
vt 0.375000 0.500000
vt 0.375000 0.500000
vt 0.375000 0.250000
vt 0.436740 0.750000
vt 0.625000 0.750000
vt 0.436740 0.250000
vt 0.625000 0.250000
vt 0.436740 0.500000
vt 0.375000 0.750000
vt 0.375000 1.000000
vt 0.375000 1.000000
vt 0.375000 0.750000
vt 0.375000 0.750000
vt 0.375000 0.500000
vt 0.625000 0.250000
vt 0.625000 1.000000
vt 0.625000 0.500000
vt 0.625000 0.250000
vt 0.625000 0.250000
vt 0.625000 0.500000
vt 0.375000 0.750000
vt 0.375000 1.000000
vt 0.375000 1.000000
vt 0.375000 0.750000
vt 0.375000 0.250000
vt 0.375000 1.000000
vt 0.000000 0.000000
vt 0.000000 0.000000
vt 0.000000 0.000000
vt 0.000000 0.000000
vt 0.000000 0.000000
vt 0.000000 0.000000
vt 0.000000 0.000000
vt 0.000000 0.000000
vt 0.000000 0.000000
vt 0.000000 0.000000
vt 0.375000 0.500000
vt 0.375000 0.500000
vt 0.375000 0.250000
vt 0.375000 0.250000
vt 0.375000 0.250000
vt 0.375000 0.500000
vt 0.375000 0.750000
vt 0.375000 1.000000
vt 0.436740 0.500000
vt 0.625000 0.500000
vt 0.436740 0.500000
vt 0.436740 0.500000
vt 0.436740 0.500000
vt 0.436740 0.500000
vt 0.436740 0.750000
vt 0.436740 0.750000
vt 0.436740 0.750000
vt 0.436740 0.750000
vt 0.436740 0.750000
vt 0.436740 0.750000
vt 0.436740 0.750000
vt 0.436740 0.750000
vt 0.436740 0.500000
vt 0.436740 0.500000
vt 0.436740 0.500000
vt 0.436740 0.500000
vt 0.125000 0.500000
vt 0.375000 0.500000
vt 0.375000 0.750000
vt 0.125000 0.750000
vt 0.375000 0.250000
vt 0.000000 0.000000
vt 0.000000 0.000000
vt 0.375000 0.750000
vt 0.375000 1.000000
vt 0.375000 1.000000
vt 0.375000 0.750000
vt 0.125000 0.750000
vt 0.625000 0.750000
vt 0.625000 0.500000
vt 0.625000 0.750000
vt 0.625000 0.750000
vt 0.625000 1.000000
vt 0.625000 1.000000
vt 0.625000 0.500000
vt 0.625000 0.750000
vt 0.625000 0.250000
vt 0.625000 0.750000
vt 0.625000 0.750000
vt 0.875000 0.500000
vt 0.875000 0.750000
vt 0.625000 0.250000
vt 0.625000 0.750000
vt 0.625000 1.000000
vt 0.625000 1.000000
vt 0.625000 1.000000
vt 0.875000 0.750000
vt 0.436740 0.750000
vt 0.436740 0.500000
vt 0.436740 0.500000
vt 0.436740 0.750000
vt 0.436740 0.750000
vt 0.436740 0.750000
vt 0.436740 0.750000
vt 0.436740 0.750000
vt 0.625000 0.750000
vt 0.625000 0.750000
vt 0.625000 0.500000
vt 0.625000 0.500000
vt 0.436740 0.750000
vt 0.375000 0.250000
vt 0.375000 0.500000
vt 0.375000 0.500000
vt 0.625000 0.750000
vt 0.436740 0.750000
vt 0.436740 0.500000
vt 0.375000 0.750000
vt 0.375000 0.750000
vt 0.375000 0.500000
vt 0.375000 0.750000
vt 0.625000 0.500000
vt 0.625000 0.500000
vt 0.375000 0.750000
vt 0.375000 0.750000
vt 0.375000 1.000000
vt 0.375000 1.000000
vt 0.375000 0.250000
vt 0.375000 1.000000
vt 0.000000 0.000000
vt 0.000000 0.000000
vt 0.000000 0.000000
vt 0.000000 0.000000
vt 0.000000 0.000000
vt 0.000000 0.000000
vt 0.000000 0.000000
vt 0.000000 0.000000
vt 0.000000 0.000000
vt 0.375000 0.500000
vt 0.375000 0.500000
vt 0.375000 0.250000
vt 0.375000 0.250000
vt 0.375000 0.500000
vt 0.375000 0.750000
vt 0.436740 0.500000
vt 0.625000 0.500000
vt 0.436740 0.500000
vt 0.436740 0.500000
vt 0.436740 0.500000
vt 0.436740 0.500000
vt 0.436740 0.750000
vt 0.436740 0.750000
vt 0.436740 0.750000
vt 0.436740 0.750000
vt 0.436740 0.750000
vt 0.436740 0.750000
vt 0.436740 0.750000
vt 0.436740 0.750000
vt 0.436740 0.500000
vt 0.436740 0.500000
vt 0.436740 0.500000
vt 0.436740 0.500000
vt 0.125000 0.500000
vt 0.125000 0.750000
vt 0.375000 0.750000
vt 0.375000 0.500000
vt 0.375000 0.250000
vt 0.000000 0.000000
vt 0.000000 0.000000
vt 0.375000 0.750000
vt 0.375000 0.750000
vt 0.375000 1.000000
vt 0.375000 1.000000
vt 0.125000 0.750000
vt 0.625000 0.750000
vt 0.625000 0.750000
vt 0.625000 0.500000
vt 0.625000 0.750000
vt 0.625000 0.750000
vt 0.625000 0.500000
vt 0.625000 0.750000
vt 0.625000 0.750000
vt 0.625000 0.750000
vt 0.436740 0.500000
vt 0.436740 0.750000
vt 0.436740 0.500000
vt 0.436740 0.750000
vt 0.436740 0.750000
vt 0.436740 0.750000
vt 0.436740 0.750000
vt 0.436740 0.750000
vn 0.3072 0.9516 0.0000
vn 0.3165 0.0843 0.9448
vn 0.2006 0.0250 -0.9794
vn 0.1623 0.0257 0.9864
vn 0.1726 0.0618 -0.9831
vn 0.1866 0.0505 0.9811
vn 0.9504 0.3109 0.0066
vn 0.9995 -0.0302 0.0046
vn 0.2805 0.8522 -0.4417
vn 0.2187 0.8231 0.5241
vn 0.3169 -0.4205 -0.8501
vn 0.2980 -0.3474 0.8891
vn 0.2491 -0.3567 -0.9004
vn 0.1544 0.1531 0.9761
vn -0.9647 -0.2633 -0.0044
vn -0.9682 -0.0008 -0.2502
vn -0.8464 0.4923 -0.2029
vn 0.9445 0.3032 -0.1266
vn -0.1900 0.6591 -0.7277
vn 0.1835 0.1505 -0.9714
vn 0.9993 -0.0365 0.0058
vn 0.3121 0.3475 0.8842
vn 0.9814 0.1918 0.0000
vn -0.0967 0.0627 -0.9933
vn 0.6704 0.7420 0.0000
vn 0.0124 -0.1489 -0.9888
vn -0.0482 0.1268 0.9908
vn 0.9991 -0.0415 0.0000
vn 0.0124 -0.1489 0.9888
vn -0.9812 -0.1930 -0.0000
vn -0.0294 -0.9996 0.0000
vn -0.9924 -0.0919 0.0821
vn -0.0001 -0.0084 -1.0000
vn 0.9898 -0.1339 0.0489
vn -0.9388 -0.3445 -0.0024
vn 0.0601 -0.0057 0.9982
vn 0.9736 0.2281 0.0000
vn 0.0204 -0.0669 -0.9975
vn 0.0006 -1.0000 0.0000
vn 0.9900 0.0008 -0.1413
vn 0.1961 0.0002 -0.9806
vn -0.9958 -0.0012 0.0920
vn 0.2301 0.0003 0.9732
vn 0.0344 0.9523 0.3031
vn 1.0000 0.0012 0.0023
vn -0.1100 0.1555 -0.9817
vn 0.9991 -0.0178 -0.0393
vn -0.9961 -0.0624 -0.0617
vn 0.3738 -0.2479 0.8938
vn 0.9358 -0.3526 0.0000
vn 0.8031 -0.5959 0.0000
vn 0.1451 -0.7626 0.6304
vn 0.9952 -0.0981 0.0067
vn 0.2108 0.0136 0.9774
vn 0.1829 -0.0131 -0.9830
vn 0.9834 0.1815 0.0000
vn 0.2676 -0.5214 -0.8102
vn 0.9541 0.0834 0.2877
vn 0.4290 0.9033 0.0000
vn 0.3855 0.0609 -0.9207
vn 0.9156 -0.2176 0.3381
vn 0.0663 -0.0023 0.9978
vn 0.0649 0.0056 0.9979
vn 0.3398 0.7320 0.5905
vn 0.2788 -0.8940 0.3508
vn 0.1493 0.2345 0.9606
vn 0.9885 -0.1515 0.0000
vn 0.4541 0.1524 -0.8778
vn -0.6767 0.7351 -0.0415
vn 0.0078 0.8536 0.5208
vn 0.4634 0.8803 0.1019
vn -0.1498 0.9733 -0.1739
vn 0.9802 -0.1512 0.1278
vn -0.9431 -0.3173 0.0996
vn -0.1144 0.2662 0.9571
vn 0.1190 -0.6829 0.7208
vn 0.9990 -0.0064 0.0440
vn -0.9076 -0.3995 -0.1290
vn 0.1598 -0.4999 -0.8512
vn -0.3072 0.9516 0.0000
vn -0.3165 0.0843 0.9448
vn -0.2006 0.0250 -0.9794
vn -0.1623 0.0257 0.9864
vn -0.1726 0.0618 -0.9831
vn -0.1866 0.0505 0.9811
vn -0.9504 0.3109 0.0066
vn -0.9995 -0.0302 0.0046
vn -0.2805 0.8522 -0.4417
vn -0.2187 0.8231 0.5241
vn -0.3169 -0.4205 -0.8501
vn -0.2980 -0.3474 0.8891
vn -0.2491 -0.3567 -0.9004
vn -0.1544 0.1531 0.9761
vn 0.9647 -0.2633 -0.0044
vn 0.9682 -0.0008 -0.2502
vn 0.8464 0.4923 -0.2029
vn -0.9445 0.3032 -0.1266
vn 0.1900 0.6591 -0.7277
vn -0.1835 0.1505 -0.9714
vn -0.9993 -0.0365 0.0058
vn -0.3121 0.3475 0.8842
vn -0.9814 0.1918 0.0000
vn 0.0967 0.0627 -0.9933
vn -0.6704 0.7420 0.0000
vn -0.0124 -0.1489 -0.9888
vn 0.0482 0.1268 0.9908
vn -0.9991 -0.0415 0.0000
vn -0.0124 -0.1489 0.9888
vn 0.9812 -0.1930 -0.0000
vn 0.0294 -0.9996 0.0000
vn 0.9924 -0.0919 0.0821
vn 0.0001 -0.0084 -1.0000
vn -0.9898 -0.1339 0.0489
vn 0.9388 -0.3445 -0.0024
vn -0.0601 -0.0057 0.9982
vn -0.9736 0.2281 0.0000
vn -0.0204 -0.0669 -0.9975
vn -0.0006 -1.0000 0.0000
vn -0.9900 0.0008 -0.1413
vn -0.1961 0.0002 -0.9806
vn 0.9958 -0.0012 0.0920
vn -0.2301 0.0003 0.9732
vn -0.0344 0.9523 0.3031
vn -1.0000 0.0012 0.0023
vn 0.1100 0.1555 -0.9817
vn -0.9991 -0.0178 -0.0393
vn 0.9961 -0.0624 -0.0617
vn -0.3738 -0.2479 0.8938
vn -0.9358 -0.3526 0.0000
vn -0.8031 -0.5959 0.0000
vn -0.1451 -0.7626 0.6304
vn -0.9952 -0.0981 0.0067
vn -0.2108 0.0136 0.9774
vn -0.1829 -0.0131 -0.9830
vn -0.9834 0.1815 0.0000
vn -0.2676 -0.5214 -0.8102
vn -0.9541 0.0834 0.2877
vn -0.4290 0.9033 0.0000
vn -0.3855 0.0609 -0.9207
vn -0.9156 -0.2176 0.3381
vn -0.0663 -0.0023 0.9978
vn -0.0649 0.0056 0.9979
vn -0.3398 0.7320 0.5905
vn -0.2788 -0.8940 0.3508
vn -0.1493 0.2345 0.9606
vn -0.9885 -0.1515 0.0000
vn -0.4541 0.1524 -0.8778
vn 0.6767 0.7351 -0.0415
vn -0.0078 0.8536 0.5208
vn -0.4634 0.8803 0.1019
vn 0.1498 0.9733 -0.1739
vn -0.9802 -0.1512 0.1278
vn 0.9431 -0.3173 0.0996
vn 0.1144 0.2662 0.9571
vn -0.1190 -0.6829 0.7208
vn -0.9990 -0.0064 0.0440
vn 0.9076 -0.3995 -0.1290
vn -0.1598 -0.4999 -0.8512
usemtl Material
s off
f 3/1/1 1/2/1 5/3/1 9/4/1
f 19/5/2 3/1/2 79/6/2 98/7/2
f 133/8/3 50/9/3 7/10/3 6/11/3
f 3/1/4 19/5/4 23/12/4 21/13/4
f 100/14/5 77/15/5 1/2/5 18/16/5
f 51/17/6 134/18/6 84/19/6 8/20/6
f 50/9/7 51/17/7 8/20/7 7/10/7
f 7/10/8 8/20/8 11/21/8 10/22/8
f 1/2/9 77/15/9 88/23/9 5/3/9
f 79/6/10 3/1/10 9/4/10 81/24/10
f 59/25/11 139/26/11 129/27/11 48/28/11
f 45/29/12 44/30/12 15/31/12 17/32/12
f 6/11/13 7/10/13 10/22/13 12/33/13
f 8/20/14 84/19/14 13/34/14 11/21/14
f 84/35/15 6/36/15 12/37/15 13/38/15
f 15/39/16 14/40/16 36/41/16 37/42/16
f 44/43/17 46/44/17 14/40/17 15/39/17
f 47/45/18 45/29/18 17/32/18 16/46/18
f 46/47/19 47/45/19 16/46/19 14/48/19
f 78/49/20 100/14/20 18/16/20 2/50/20
f 2/50/21 18/16/21 19/5/21 4/51/21
f 4/51/22 19/5/22 98/7/22 80/52/22
f 22/53/23 20/54/23 21/13/23 23/12/23
f 18/16/24 1/2/24 20/54/24 22/53/24
f 1/2/25 3/1/25 21/13/25 20/54/25
f 33/55/26 32/56/26 26/57/26 24/58/26
f 68/59/27 65/60/27 29/61/27 31/62/27
f 32/56/28 34/63/28 27/64/28 26/57/28
f 34/63/29 35/65/29 25/66/29 27/64/29
f 35/65/30 33/55/30 24/58/30 25/66/30
f 29/61/31 28/67/31 30/68/31 31/62/31
f 65/60/32 66/69/32 28/67/32 29/61/32
f 66/69/33 67/70/33 30/68/33 28/67/33
f 67/70/34 68/59/34 31/62/34 30/68/34
f 19/5/35 18/16/35 33/55/35 35/65/35
f 23/12/36 19/5/36 35/65/36 34/63/36
f 22/53/37 23/12/37 34/63/37 32/56/37
f 18/16/38 22/53/38 32/56/38 33/55/38
f 36/71/39 38/72/39 39/73/39 37/74/39
f 16/46/40 17/32/40 39/73/40 38/72/40
f 14/48/41 16/46/41 38/72/41 36/75/41
f 15/39/42 37/42/42 42/76/42 40/77/42
f 41/78/43 40/79/43 42/80/43 43/81/43
f 17/32/44 15/31/44 40/79/44 41/78/44
f 39/73/45 17/32/45 41/78/45 43/81/45
f 37/74/39 39/73/39 43/81/39 42/82/39
f 12/33/46 10/22/46 47/45/46 46/47/46
f 10/22/47 11/21/47 45/29/47 47/45/47
f 13/38/48 12/37/48 46/44/48 44/43/48
f 11/21/49 13/34/49 44/30/49 45/29/49
f 49/83/50 48/28/50 52/84/50 53/85/50
f 60/86/51 59/25/51 48/28/51 49/83/51
f 153/87/52 60/86/52 49/83/52 131/88/52
f 2/50/53 4/51/53 51/17/53 50/9/53
f 4/51/54 80/52/54 134/18/54 51/17/54
f 78/49/55 2/50/55 50/9/55 133/8/55
f 53/85/56 52/84/56 54/89/56 55/90/56
f 48/28/57 129/27/57 137/91/57 52/84/57
f 53/85/58 55/90/58 58/92/58 57/93/58
f 54/89/59 141/94/59 143/95/59 55/90/59
f 52/84/60 137/91/60 141/96/60 54/89/60
f 49/83/61 53/85/61 57/93/61 56/97/61
f 146/98/62 56/97/62 57/93/62 148/99/62
f 148/99/63 57/93/63 58/92/63 150/100/63
f 55/90/64 143/95/64 150/101/64 58/92/64
f 131/88/65 49/83/65 56/97/65 146/98/65
f 81/24/66 9/4/66 60/86/66 153/87/66
f 9/4/67 5/3/67 59/25/67 60/86/67
f 5/3/68 88/23/68 139/26/68 59/25/68
f 26/57/69 27/64/69 62/102/69 64/103/69
f 24/58/70 26/57/70 64/103/70 63/104/70
f 25/66/71 24/58/71 63/104/71 61/105/71
f 27/64/72 25/66/72 61/105/72 62/102/72
f 64/103/73 62/102/73 68/59/73 67/70/73
f 63/104/33 64/103/33 67/70/33 66/69/33
f 61/105/74 63/104/74 66/69/74 65/60/74
f 62/102/75 61/105/75 71/106/75 70/107/75
f 70/107/76 71/106/76 72/108/76 69/109/76
f 68/59/77 62/102/77 70/107/77 69/109/77
f 61/105/78 65/60/78 72/108/78 71/106/78
f 65/60/79 68/59/79 69/109/79 72/108/79
f 75/110/80 87/111/80 82/112/80 73/113/80
f 99/114/81 98/7/81 79/6/81 75/110/81
f 133/8/82 83/115/82 85/116/82 135/117/82
f 75/110/83 102/118/83 104/119/83 99/114/83
f 100/14/84 97/120/84 73/113/84 77/15/84
f 136/121/85 86/122/85 84/19/85 134/18/85
f 135/117/86 85/116/86 86/122/86 136/121/86
f 85/116/87 89/123/87 90/124/87 86/122/87
f 73/113/88 82/112/88 88/23/88 77/15/88
f 79/6/89 81/24/89 87/111/89 75/110/89
f 151/125/90 130/126/90 129/27/90 139/26/90
f 126/127/91 96/128/91 94/129/91 125/130/91
f 83/115/92 91/131/92 89/123/92 85/116/92
f 86/122/93 90/124/93 92/132/93 84/19/93
f 84/35/94 92/133/94 91/134/94 83/135/94
f 94/136/95 118/137/95 117/138/95 93/139/95
f 125/140/96 94/136/96 93/139/96 127/141/96
f 128/142/97 95/143/97 96/128/97 126/127/97
f 127/144/98 93/145/98 95/143/98 128/142/98
f 78/49/99 74/146/99 97/120/99 100/14/99
f 74/146/100 76/147/100 99/114/100 97/120/100
f 76/147/101 80/52/101 98/7/101 99/114/101
f 103/148/102 104/119/102 102/118/102 101/149/102
f 97/120/103 103/148/103 101/149/103 73/113/103
f 73/113/104 101/149/104 102/118/104 75/110/104
f 114/150/105 105/151/105 107/152/105 113/153/105
f 161/154/106 112/155/106 110/156/106 158/157/106
f 113/153/107 107/152/107 108/158/107 115/159/107
f 115/159/108 108/158/108 106/160/108 116/161/108
f 116/161/109 106/160/109 105/151/109 114/150/109
f 110/156/110 112/155/110 111/162/110 109/163/110
f 158/157/111 110/156/111 109/163/111 159/164/111
f 159/164/112 109/163/112 111/162/112 160/165/112
f 160/165/113 111/162/113 112/155/113 161/154/113
f 99/114/114 116/161/114 114/150/114 97/120/114
f 104/119/115 115/159/115 116/161/115 99/114/115
f 103/148/116 113/153/116 115/159/116 104/119/116
f 97/120/117 114/150/117 113/153/117 103/148/117
f 117/166/118 118/167/118 120/168/118 119/169/118
f 95/143/119 119/169/119 120/168/119 96/128/119
f 93/145/120 117/170/120 119/169/120 95/143/120
f 94/136/121 121/171/121 123/172/121 118/137/121
f 122/173/122 124/174/122 123/175/122 121/176/122
f 96/128/123 122/173/123 121/176/123 94/129/123
f 120/168/124 124/174/124 122/173/124 96/128/124
f 118/167/118 123/177/118 124/174/118 120/168/118
f 91/131/125 127/144/125 128/142/125 89/123/125
f 89/123/126 128/142/126 126/127/126 90/124/126
f 92/133/127 125/140/127 127/141/127 91/134/127
f 90/124/128 126/127/128 125/130/128 92/132/128
f 132/178/129 140/179/129 138/180/129 130/126/129
f 152/181/130 132/178/130 130/126/130 151/125/130
f 153/87/131 131/88/131 132/178/131 152/181/131
f 74/146/132 135/117/132 136/121/132 76/147/132
f 76/147/133 136/121/133 134/18/133 80/52/133
f 78/49/134 133/8/134 135/117/134 74/146/134
f 140/179/135 144/182/135 142/183/135 138/180/135
f 130/126/136 138/180/136 137/91/136 129/27/136
f 140/179/137 147/184/137 149/185/137 144/182/137
f 142/183/138 144/182/138 143/95/138 141/94/138
f 138/180/139 142/183/139 141/96/139 137/91/139
f 132/178/140 145/186/140 147/184/140 140/179/140
f 146/98/141 148/99/141 147/184/141 145/186/141
f 148/99/142 150/100/142 149/185/142 147/184/142
f 144/182/143 149/185/143 150/101/143 143/95/143
f 131/88/144 146/98/144 145/186/144 132/178/144
f 81/24/145 153/87/145 152/181/145 87/111/145
f 87/111/146 152/181/146 151/125/146 82/112/146
f 82/112/147 151/125/147 139/26/147 88/23/147
f 107/152/148 157/187/148 155/188/148 108/158/148
f 105/151/149 156/189/149 157/187/149 107/152/149
f 106/160/150 154/190/150 156/189/150 105/151/150
f 108/158/151 155/188/151 154/190/151 106/160/151
f 157/187/152 160/165/152 161/154/152 155/188/152
f 156/189/112 159/164/112 160/165/112 157/187/112
f 154/190/153 158/157/153 159/164/153 156/189/153
f 155/188/154 163/191/154 164/192/154 154/190/154
f 163/191/155 162/193/155 165/194/155 164/192/155
f 161/154/156 162/193/156 163/191/156 155/188/156
f 154/190/157 164/192/157 165/194/157 158/157/157
f 158/157/158 165/194/158 162/193/158 161/154/158
