# Blender v2.91.0 OBJ File: 'untitled.blend'
# www.blender.org
mtllib tank.mtl
o Turret
v -0.100000 2.900000 0.422597
v -0.100000 2.900000 5.963965
v -1.217328 1.625000 -0.934657
v -0.636404 3.250000 -0.794373
v -1.217328 1.625000 0.934657
v -0.636404 3.250000 0.135030
v -1.383178 1.844821 1.315354
v -1.383178 1.844821 -1.404547
v 0.000000 2.900000 0.422597
v 0.000000 3.100000 0.250000
v 0.000000 2.900000 5.963965
v 0.000000 3.100000 5.689150
v 0.100000 2.900000 0.422597
v 0.000000 3.250000 -0.794373
v 0.100000 2.900000 5.963965
v 0.000000 1.625000 -0.934657
v 0.000000 1.625000 0.934657
v 0.000000 3.250000 0.135030
v 1.217328 1.625000 -0.934657
v 0.636404 3.250000 -0.794373
v 1.217328 1.625000 0.934657
v 0.636404 3.250000 0.135030
v 0.000000 1.844821 -1.404547
v 0.000000 1.844821 1.315354
v 1.383178 1.844821 1.315354
v 1.383178 1.844821 -1.404547
vt 0.625000 0.250000
vt 0.625000 0.000000
vt 0.375000 0.750000
vt 0.375000 0.500000
vt 0.408819 0.250000
vt 0.625000 0.250000
vt 0.625000 0.500000
vt 0.408819 0.500000
vt 0.408819 0.500000
vt 0.625000 0.500000
vt 0.625000 0.750000
vt 0.408819 0.750000
vt 0.125000 0.500000
vt 0.125000 0.750000
vt 0.408819 0.750000
vt 0.625000 0.750000
vt 0.625000 1.000000
vt 0.408819 1.000000
vt 0.125000 0.500000
vt 0.375000 0.500000
vt 0.375000 0.750000
vt 0.125000 0.750000
vt 0.625000 0.500000
vt 0.875000 0.500000
vt 0.875000 0.750000
vt 0.375000 1.000000
vt 0.375000 0.500000
vt 0.375000 0.750000
vt 0.375000 0.250000
vt 0.375000 0.500000
vt 0.375000 0.500000
vt 0.375000 0.750000
vt 0.408819 0.250000
vt 0.408819 0.500000
vt 0.625000 0.500000
vt 0.625000 0.250000
vt 0.408819 0.750000
vt 0.625000 0.750000
vt 0.408819 0.750000
vt 0.625000 0.750000
vt 0.375000 0.750000
vt 0.375000 0.500000
vt 0.625000 0.500000
vt 0.375000 0.750000
vt 0.375000 0.250000
vt 0.375000 0.500000
vn -0.8944 0.4472 0.0000
vn -0.8830 0.4693 0.0000
vn 0.0000 0.6432 0.7657
vn 0.0000 -1.0000 0.0000
vn 0.0000 0.3983 -0.9173
vn 0.0000 1.0000 0.0000
vn 0.0000 -0.9058 -0.4237
vn 0.0000 -0.8660 0.5000
vn -0.7983 -0.6023 0.0000
vn 0.8944 0.4472 0.0000
vn 0.8830 0.4693 0.0000
vn 0.7983 -0.6023 0.0000
usemtl None
s off
f 12/1/1 10/2/1 1/3/1 2/4/1
f 7/5/2 6/6/2 4/7/2 8/8/2
f 24/9/3 18/10/3 6/11/3 7/12/3
f 11/13/4 2/4/4 1/3/4 9/14/4
f 8/15/5 4/16/5 14/17/5 23/18/5
f 17/19/4 5/20/4 3/21/4 16/22/4
f 6/23/6 18/24/6 14/25/6 4/16/6
f 3/21/7 8/15/7 23/18/7 16/26/7
f 17/27/8 24/9/8 7/12/8 5/28/8
f 5/29/9 7/5/9 8/8/9 3/30/9
f 12/1/10 15/31/10 13/32/10 10/2/10
f 25/33/11 26/34/11 20/35/11 22/36/11
f 24/9/3 25/37/3 22/38/3 18/10/3
f 11/13/4 9/14/4 13/32/4 15/31/4
f 26/39/5 23/18/5 14/17/5 20/40/5
f 17/19/4 16/22/4 19/41/4 21/42/4
f 22/43/6 20/40/6 14/25/6 18/24/6
f 19/41/7 16/26/7 23/18/7 26/39/7
f 17/27/8 21/44/8 25/37/8 24/9/8
f 21/45/12 19/46/12 26/34/12 25/33/12
o Hull
v -1.660926 0.000000 -2.922257
v -1.501201 1.625000 -2.776656
v -1.006375 0.000000 2.933408
v -1.501201 1.625000 1.455512
v -1.430157 0.992003 3.904476
v -2.000000 1.222325 -3.875001
v -1.279993 0.543145 3.626070
v -2.000000 0.248597 -3.326585
v 0.000000 0.000000 -2.922257
v 0.000000 1.625000 -2.776656
v 0.000000 0.000000 2.933408
v 0.000000 1.625000 1.455512
v 1.660926 0.000000 -2.922257
v 1.501201 1.625000 -2.776656
v 1.006375 0.000000 2.933408
v 1.501201 1.625000 1.455512
v 0.000000 1.222325 -3.875001
v 0.000000 1.222325 3.874999
v 1.430157 0.992003 3.904476
v 2.000000 1.222325 -3.875001
v 0.000000 0.543145 3.626070
v 1.279993 0.543145 3.626070
v 2.000000 0.248597 -3.326585
v 0.000000 0.248597 -3.326585
vt 0.563050 0.250000
vt 0.625000 0.250000
vt 0.625000 0.500000
vt 0.563050 0.500000
vt 0.625000 0.750000
vt 0.563050 0.750000
vt 0.625000 1.000000
vt 0.563050 1.000000
vt 0.125000 0.500000
vt 0.375000 0.500000
vt 0.375000 0.750000
vt 0.125000 0.750000
vt 0.875000 0.500000
vt 0.875000 0.750000
vt 0.423294 0.750000
vt 0.423294 1.000000
vt 0.423294 0.500000
vt 0.423294 0.250000
vt 0.375000 0.250000
vt 0.375000 1.000000
vt 0.563050 0.500000
vt 0.625000 0.500000
vt 0.563050 0.750000
vt 0.625000 0.750000
vt 0.375000 0.750000
vt 0.375000 0.500000
vt 0.423294 0.750000
vt 0.423294 0.500000
vn -0.0745 0.9752 0.2085
vn -0.8979 0.4373 0.0510
vn 0.0000 0.9389 -0.3442
vn 0.0000 -1.0000 0.0000
vn 0.0000 1.0000 0.0000
vn 0.0000 -0.4907 -0.8713
vn -0.9923 -0.0882 0.0873
vn 0.0454 -0.4181 0.9073
vn 0.0000 -0.7869 0.6171
vn -0.7697 -0.6310 0.0971
vn 0.0000 -0.8519 -0.5238
vn 0.0745 0.9752 0.2085
vn 0.8979 0.4373 0.0510
vn 0.9923 -0.0882 0.0873
vn -0.0454 -0.4181 0.9073
vn 0.7697 -0.6310 0.0971
usemtl None
s off
f 44/47/13 38/48/13 30/49/13 31/50/13
f 31/50/14 30/49/14 28/51/14 32/52/14
f 32/52/15 28/51/15 36/53/15 43/54/15
f 37/55/16 29/56/16 27/57/16 35/58/16
f 30/49/17 38/59/17 36/60/17 28/51/17
f 34/61/18 32/52/18 43/54/18 50/62/18
f 33/63/19 31/50/19 32/52/19 34/61/19
f 47/64/20 44/47/20 31/50/20 33/63/20
f 37/65/21 47/64/21 33/63/21 29/56/21
f 29/56/22 33/63/22 34/61/22 27/57/22
f 27/57/23 34/61/23 50/62/23 35/66/23
f 44/47/24 45/67/24 42/68/24 38/48/24
f 45/67/25 46/69/25 40/70/25 42/68/25
f 46/69/15 43/54/15 36/53/15 40/70/15
f 37/55/16 35/58/16 39/71/16 41/72/16
f 42/68/17 40/70/17 36/60/17 38/59/17
f 49/73/18 50/62/18 43/54/18 46/69/18
f 48/74/26 49/73/26 46/69/26 45/67/26
f 47/64/27 48/74/27 45/67/27 44/47/27
f 37/65/21 41/72/21 48/74/21 47/64/21
f 41/72/28 39/71/28 49/73/28 48/74/28
f 39/71/23 35/66/23 50/62/23 49/73/23
